#Comment line ignore any data following # character 
#Hierarchical Translation and Rotation (.htr) file 
[Header]	
#Header keywords are followed by a single value 
FileType HTR		#Single word string
DataType HTRS		#Translation followed by rotation and scale data
FileVersion 1		#integer
NumSegments 84		#integer
NumFrames 2		#integer
DataFrameRate 30		#integer, data frame rate in this file
EulerRotationOrder ZYX
CalibrationUnits mm
RotationUnits Degrees
GlobalAxisofGravity Y
BoneLengthAxis Y
ScaleFactor 1.00
[SegmentNames&Hierarchy]
#CHILD	PARENT
MASTER GLOBAL
root MASTER
chest root
L_mid_tent01 root
R_mid_tent01 root
spine01 root
Bip01_Neck chest
L_humerus chest
R_humerus chest
weapon_bone chest
Bip01_Head Bip01_Neck
eye_left_bone Bip01_Head
eye_right_bone Bip01_Head
L_forearm L_humerus
L_front_hand L_forearm
L_weapon_bone L_forearm
L_front_hand01_01 L_front_hand
L_front_hand02_01 L_front_hand
L_front_hand03_01 L_front_hand
L_front_hand01_02 L_front_hand01_01
L_front_hand02_02 L_front_hand02_01
L_front_hand03_02 L_front_hand03_01
R_forearm R_humerus
R_front_hand R_forearm
R_weapon_bone R_forearm
R_front_hand01_01 R_front_hand
R_front_hand02_01 R_front_hand
R_front_hand03_01 R_front_hand
R_front_hand01_02 R_front_hand01_01
R_front_hand02_02 R_front_hand02_01
R_front_hand03_02 R_front_hand03_01
null_rope01_connect L_mid_tent01
Rope1_Seg01 null_rope01_connect
Rope1_Seg02 Rope1_Seg01
Rope1_Seg03 Rope1_Seg02
Rope1_Seg04 Rope1_Seg03
Rope1_Seg05 Rope1_Seg04
Rope1_Seg06 Rope1_Seg05
Rope1_Seg07 Rope1_Seg06
Rope1_Seg09 Rope1_Seg07
L_mid_hand01 Rope1_Seg09
L_mid_hand02 Rope1_Seg09
L_mid_hand03 Rope1_Seg09
null_rope02_connect R_mid_tent01
Rope2_Seg01 null_rope02_connect
Rope2_Seg02 Rope2_Seg01
Rope2_Seg03 Rope2_Seg02
Rope2_Seg04 Rope2_Seg03
Rope2_Seg05 Rope2_Seg04
Rope2_Seg06 Rope2_Seg05
Rope2_Seg07 Rope2_Seg06
Rope2_Seg09 Rope2_Seg07
R_mid_hand01 Rope2_Seg09
R_mid_hand02 Rope2_Seg09
R_mid_hand03 Rope2_Seg09
spine02 spine01
spine03 spine02
pelvis spine03
null_rope03_connect pelvis
null_rope04_connect pelvis
Rope3_Seg01 null_rope03_connect
Rope3_Seg02 Rope3_Seg01
Rope3_Seg03 Rope3_Seg02
Rope3_Seg04 Rope3_Seg03
Rope3_Seg05 Rope3_Seg04
Rope3_Seg06 Rope3_Seg05
Rope3_Seg07 Rope3_Seg06
Rope3_Seg08 Rope3_Seg07
Rope3_Seg09 Rope3_Seg08
R_rear_hand01 Rope3_Seg09
R_rear_hand02 Rope3_Seg09
R_rear_hand03 Rope3_Seg09
Rope4_Seg01 null_rope04_connect
Rope4_Seg02 Rope4_Seg01
Rope4_Seg03 Rope4_Seg02
Rope4_Seg04 Rope4_Seg03
Rope4_Seg05 Rope4_Seg04
Rope4_Seg06 Rope4_Seg05
Rope4_Seg07 Rope4_Seg06
Rope4_Seg08 Rope4_Seg07
Rope4_Seg09 Rope4_Seg08
L_rear_hand01 Rope4_Seg09
L_rear_hand02 Rope4_Seg09
L_rear_hand03 Rope4_Seg09
[BasePosition]
#SegmentName Tx, Ty, Tz, Rx, Ry, Rz, BoneLength
MASTER 0.000000 0.000000 0.000000 -90.000000 0.000000 0.000000 10.000000 
root 0.000000 0.000000 0.000000 0.000000 0.000000 0.000000 10.000000 
chest 0.000000 0.000000 0.000000 0.000000 0.000000 0.000000 10.000000 
L_mid_tent01 0.000000 0.000000 0.000000 0.000000 0.000000 0.000000 10.000000 
R_mid_tent01 0.000000 0.000000 0.000000 0.000000 0.000000 0.000000 10.000000 
spine01 0.000000 0.000000 0.000000 0.000000 0.000000 0.000000 10.000000 
Bip01_Neck 0.000000 0.000000 0.000000 0.000000 0.000000 0.000000 10.000000 
L_humerus 0.000000 0.000000 0.000000 0.000000 0.000000 0.000000 10.000000 
R_humerus 0.000000 0.000000 0.000000 0.000000 0.000000 0.000000 10.000000 
weapon_bone 0.000000 0.000000 0.000000 0.000000 0.000000 0.000000 10.000000 
Bip01_Head 0.000000 0.000000 0.000000 0.000000 0.000000 0.000000 10.000000 
eye_left_bone 0.000000 0.000000 0.000000 0.000000 0.000000 0.000000 10.000000 
eye_right_bone 0.000000 0.000000 0.000000 0.000000 0.000000 0.000000 10.000000 
L_forearm 0.000000 0.000000 0.000000 0.000000 0.000000 0.000000 10.000000 
L_front_hand 0.000000 0.000000 0.000000 0.000000 0.000000 0.000000 10.000000 
L_weapon_bone 0.000000 0.000000 0.000000 0.000000 0.000000 0.000000 10.000000 
L_front_hand01_01 0.000000 0.000000 0.000000 0.000000 0.000000 0.000000 10.000000 
L_front_hand02_01 0.000000 0.000000 0.000000 0.000000 0.000000 0.000000 10.000000 
L_front_hand03_01 0.000000 0.000000 0.000000 0.000000 0.000000 0.000000 10.000000 
L_front_hand01_02 0.000000 0.000000 0.000000 0.000000 0.000000 0.000000 10.000000 
L_front_hand02_02 0.000000 0.000000 0.000000 0.000000 0.000000 0.000000 10.000000 
L_front_hand03_02 0.000000 0.000000 0.000000 0.000000 0.000000 0.000000 10.000000 
R_forearm 0.000000 0.000000 0.000000 0.000000 0.000000 0.000000 10.000000 
R_front_hand 0.000000 0.000000 0.000000 0.000000 0.000000 0.000000 10.000000 
R_weapon_bone 0.000000 0.000000 0.000000 0.000000 0.000000 0.000000 10.000000 
R_front_hand01_01 0.000000 0.000000 0.000000 0.000000 0.000000 0.000000 10.000000 
R_front_hand02_01 0.000000 0.000000 0.000000 0.000000 0.000000 0.000000 10.000000 
R_front_hand03_01 0.000000 0.000000 0.000000 0.000000 0.000000 0.000000 10.000000 
R_front_hand01_02 0.000000 0.000000 0.000000 0.000000 0.000000 0.000000 10.000000 
R_front_hand02_02 0.000000 0.000000 0.000000 0.000000 0.000000 0.000000 10.000000 
R_front_hand03_02 0.000000 0.000000 0.000000 0.000000 0.000000 0.000000 10.000000 
null_rope01_connect 0.000000 0.000000 0.000000 0.000000 0.000000 0.000000 10.000000 
Rope1_Seg01 0.000000 0.000000 0.000000 0.000000 0.000000 0.000000 10.000000 
Rope1_Seg02 0.000000 0.000000 0.000000 0.000000 0.000000 0.000000 10.000000 
Rope1_Seg03 0.000000 0.000000 0.000000 0.000000 0.000000 0.000000 10.000000 
Rope1_Seg04 0.000000 0.000000 0.000000 0.000000 0.000000 0.000000 10.000000 
Rope1_Seg05 0.000000 0.000000 0.000000 0.000000 0.000000 0.000000 10.000000 
Rope1_Seg06 0.000000 0.000000 0.000000 0.000000 0.000000 0.000000 10.000000 
Rope1_Seg07 0.000000 0.000000 0.000000 0.000000 0.000000 0.000000 10.000000 
Rope1_Seg09 0.000000 0.000000 0.000000 0.000000 0.000000 0.000000 10.000000 
L_mid_hand01 0.000000 0.000000 0.000000 0.000000 0.000000 0.000000 10.000000 
L_mid_hand02 0.000000 0.000000 0.000000 0.000000 0.000000 0.000000 10.000000 
L_mid_hand03 0.000000 0.000000 0.000000 0.000000 0.000000 0.000000 10.000000 
null_rope02_connect 0.000000 0.000000 0.000000 0.000000 0.000000 0.000000 10.000000 
Rope2_Seg01 0.000000 0.000000 0.000000 0.000000 0.000000 0.000000 10.000000 
Rope2_Seg02 0.000000 0.000000 0.000000 0.000000 0.000000 0.000000 10.000000 
Rope2_Seg03 0.000000 0.000000 0.000000 0.000000 0.000000 0.000000 10.000000 
Rope2_Seg04 0.000000 0.000000 0.000000 0.000000 0.000000 0.000000 10.000000 
Rope2_Seg05 0.000000 0.000000 0.000000 0.000000 0.000000 0.000000 10.000000 
Rope2_Seg06 0.000000 0.000000 0.000000 0.000000 0.000000 0.000000 10.000000 
Rope2_Seg07 0.000000 0.000000 0.000000 0.000000 0.000000 0.000000 10.000000 
Rope2_Seg09 0.000000 0.000000 0.000000 0.000000 0.000000 0.000000 10.000000 
R_mid_hand01 0.000000 0.000000 0.000000 0.000000 0.000000 0.000000 10.000000 
R_mid_hand02 0.000000 0.000000 0.000000 0.000000 0.000000 0.000000 10.000000 
R_mid_hand03 0.000000 0.000000 0.000000 0.000000 0.000000 0.000000 10.000000 
spine02 0.000000 0.000000 0.000000 0.000000 0.000000 0.000000 10.000000 
spine03 0.000000 0.000000 0.000000 0.000000 0.000000 0.000000 10.000000 
pelvis 0.000000 0.000000 0.000000 0.000000 0.000000 0.000000 10.000000 
null_rope03_connect 0.000000 0.000000 0.000000 0.000000 0.000000 0.000000 10.000000 
null_rope04_connect 0.000000 0.000000 0.000000 0.000000 0.000000 0.000000 10.000000 
Rope3_Seg01 0.000000 0.000000 0.000000 0.000000 0.000000 0.000000 10.000000 
Rope3_Seg02 0.000000 0.000000 0.000000 0.000000 0.000000 0.000000 10.000000 
Rope3_Seg03 0.000000 0.000000 0.000000 0.000000 0.000000 0.000000 10.000000 
Rope3_Seg04 0.000000 0.000000 0.000000 0.000000 0.000000 0.000000 10.000000 
Rope3_Seg05 0.000000 0.000000 0.000000 0.000000 0.000000 0.000000 10.000000 
Rope3_Seg06 0.000000 0.000000 0.000000 0.000000 0.000000 0.000000 10.000000 
Rope3_Seg07 0.000000 0.000000 0.000000 0.000000 0.000000 0.000000 10.000000 
Rope3_Seg08 0.000000 0.000000 0.000000 0.000000 0.000000 0.000000 10.000000 
Rope3_Seg09 0.000000 0.000000 0.000000 0.000000 0.000000 0.000000 10.000000 
R_rear_hand01 0.000000 0.000000 0.000000 0.000000 0.000000 0.000000 10.000000 
R_rear_hand02 0.000000 0.000000 0.000000 0.000000 0.000000 0.000000 10.000000 
R_rear_hand03 0.000000 0.000000 0.000000 0.000000 0.000000 0.000000 10.000000 
Rope4_Seg01 0.000000 0.000000 0.000000 0.000000 0.000000 0.000000 10.000000 
Rope4_Seg02 0.000000 0.000000 0.000000 0.000000 0.000000 0.000000 10.000000 
Rope4_Seg03 0.000000 0.000000 0.000000 0.000000 0.000000 0.000000 10.000000 
Rope4_Seg04 0.000000 0.000000 0.000000 0.000000 0.000000 0.000000 10.000000 
Rope4_Seg05 0.000000 0.000000 0.000000 0.000000 0.000000 0.000000 10.000000 
Rope4_Seg06 0.000000 0.000000 0.000000 0.000000 0.000000 0.000000 10.000000 
Rope4_Seg07 0.000000 0.000000 0.000000 0.000000 0.000000 0.000000 10.000000 
Rope4_Seg08 0.000000 0.000000 0.000000 0.000000 0.000000 0.000000 10.000000 
Rope4_Seg09 0.000000 0.000000 0.000000 0.000000 0.000000 0.000000 10.000000 
L_rear_hand01 0.000000 0.000000 0.000000 0.000000 0.000000 0.000000 10.000000 
L_rear_hand02 0.000000 0.000000 0.000000 0.000000 0.000000 0.000000 10.000000 
L_rear_hand03 0.000000 0.000000 0.000000 0.000000 0.000000 0.000000 10.000000 
#Beginning of Data. Separated by tabs
#Fr	Tx	Ty	Tz	Rx	Ry	Rz	SF
[MASTER]
45 225.857559 7625.422852 24.016340 0.001660 0.001660 0.001660 7628.804688
46 112.928391 7812.711426 12.008190 0.001660 0.001660 0.001660 7813.536621
[root]
45 -16.502304 0.457045 1389.454834 -81.370247 -18.320616 -88.825066 1389.552856
46 -16.502304 6.951244 1432.217896 -88.348358 -13.887182 -89.284180 1432.329956
[chest]
45 -84.512650 -34.090519 0.000000 3.750127 -2.936571 177.051804 91.129311
46 -84.512650 -34.090519 0.000000 0.480498 -1.313039 172.400070 91.129311
[L_mid_tent01]
45 27.298605 22.179258 -249.918701 -19.244764 6.630095 3.087757 252.381638
46 27.298594 22.179258 -249.918701 -20.046045 9.420051 8.201223 252.381638
[R_mid_tent01]
45 23.228794 24.509907 226.238495 -166.863785 -30.024269 33.503849 228.744751
46 23.228794 24.509907 226.238495 -165.967514 -23.617605 28.770281 228.744751
[spine01]
45 -0.361383 -0.195265 0.000000 0.001947 0.001311 22.072004 0.410763
46 -0.361383 -0.195265 0.000000 0.001947 0.001311 22.061928 0.410763
[Bip01_Neck]
45 165.484543 71.581718 0.000119 176.643677 -1.657967 43.431911 180.302734
46 165.484543 71.581718 0.000119 176.643677 -1.657967 43.431911 180.302734
[L_humerus]
45 -13.983130 -135.272980 -120.471481 22.459541 71.151131 111.273163 181.680161
46 -13.983130 -135.272980 -120.471481 7.269001 70.868645 96.741989 181.680161
[R_humerus]
45 -13.983309 -135.273102 125.287651 33.010223 -77.129265 62.508171 184.909012
46 -13.983309 -135.273102 125.287651 30.269680 -73.664124 65.323547 184.909012
[weapon_bone]
45 235.964890 -300.705902 0.000000 0.000000 -89.951546 -128.212341 382.234833
46 235.964890 -300.705902 0.000000 0.000000 -89.951546 -128.212341 382.234833
[Bip01_Head]
45 213.444000 185.715118 11.777025 6.034627 3.321072 -43.887379 283.173340
46 213.444092 185.715134 11.776983 5.240968 2.942259 -43.897137 283.173431
[eye_left_bone]
45 -24.626970 125.451866 -64.772606 0.000000 -90.000000 -99.840431 143.318359
46 -24.626970 125.451866 -64.772606 0.000000 -90.000000 -99.840431 143.318359
[eye_right_bone]
45 -24.626970 125.451866 64.327362 0.000000 -89.965736 80.156380 143.117676
46 -24.626970 125.451866 64.327362 0.000000 -89.965736 80.156380 143.117676
[L_forearm]
45 322.776093 0.000000 -0.000119 0.000397 -0.002313 -109.452286 322.776093
46 322.776093 0.000000 -0.000119 0.000396 -0.002314 -109.426048 322.776093
[L_front_hand]
45 241.149185 -0.042021 -3.300071 -178.667953 -1.835447 -27.422350 241.171753
46 241.149185 -0.042021 -3.300071 -178.667953 -1.835447 -27.422350 241.171753
[L_weapon_bone]
45 156.183838 0.000000 0.000000 0.000014 0.000007 0.000001 156.183838
46 156.183838 0.000000 0.000000 0.000014 0.000007 0.000001 156.183838
[L_front_hand01_01]
45 86.095154 20.947098 -0.655860 -0.366594 -0.477154 75.385574 88.609184
46 86.095154 20.947098 -0.655860 -0.366594 -0.477154 75.385574 88.609184
[L_front_hand02_01]
45 86.935165 -11.437475 24.513514 154.399796 -59.883835 -61.369587 91.046425
46 86.935165 -11.437475 24.513514 154.399796 -59.883835 -61.369587 91.046425
[L_front_hand03_01]
45 86.637497 -14.123976 -20.424902 -153.913849 58.118122 -62.702866 90.126129
46 86.637497 -14.123976 -20.424902 -153.913849 58.118122 -62.702866 90.126129
[L_front_hand01_02]
45 71.020905 -0.000179 0.000030 0.000334 -0.002323 -106.379684 71.020905
46 71.020905 -0.000179 0.000030 0.000334 -0.002323 -106.379684 71.020905
[L_front_hand02_02]
45 71.020927 -0.000119 0.000060 0.000334 -0.002323 -106.379684 71.020927
46 71.020927 -0.000119 0.000060 0.000334 -0.002323 -106.379684 71.020927
[L_front_hand03_02]
45 71.020905 -0.000060 0.000060 0.000334 -0.002323 -106.379684 71.020905
46 71.020905 -0.000060 0.000060 0.000334 -0.002323 -106.379684 71.020905
[R_forearm]
45 322.776428 -0.000060 0.000030 0.203418 0.064247 -108.095398 322.776428
46 322.776428 -0.000060 0.000030 0.204762 0.063250 -108.079102 322.776428
[R_front_hand]
45 238.847015 -0.006795 2.210259 -2.635298 -10.645461 -26.312506 238.857239
46 238.847015 -0.006795 2.210259 -2.635298 -10.645461 -26.312506 238.857239
[R_weapon_bone]
45 155.664093 0.002503 -0.000030 0.003487 0.001180 -90.988930 155.664078
46 155.664093 0.002503 -0.000030 0.003487 0.001180 -90.988930 155.664078
[R_front_hand01_01]
45 87.624611 14.231146 22.918642 -154.633514 -59.950634 61.746063 91.683487
46 87.624611 14.231146 22.918642 -154.633499 -59.950619 61.746044 91.683487
[R_front_hand02_01]
45 89.356956 14.367283 -19.491137 154.602661 58.302849 63.744389 92.579636
46 89.356956 14.367283 -19.491137 154.602661 58.302849 63.744389 92.579636
[R_front_hand03_01]
45 87.286232 -22.307278 -0.143439 0.162155 -0.423168 -75.767921 90.091743
46 87.286232 -22.307278 -0.143439 0.162155 -0.423168 -75.767921 90.091743
[R_front_hand01_02]
45 71.020905 0.000060 0.000119 0.002323 -0.000334 106.381714 71.020905
46 71.020905 0.000060 0.000119 0.002323 -0.000334 106.381714 71.020905
[R_front_hand02_02]
45 71.020844 -0.000030 -0.000119 0.002323 -0.000334 106.381714 71.020836
46 71.020844 -0.000030 -0.000119 0.002323 -0.000334 106.381714 71.020836
[R_front_hand03_02]
45 71.020905 0.000000 0.000030 0.002323 -0.000334 106.381714 71.020905
46 71.020905 0.000000 0.000030 0.002323 -0.000334 106.381714 71.020905
[null_rope01_connect]
45 328.732483 0.000000 -0.000238 -140.313919 -78.598183 -115.892082 328.732483
46 328.732483 0.000000 -0.000238 -150.601593 -69.879051 -115.355049 328.732483
[Rope1_Seg01]
45 0.000000 0.000000 0.000000 37.897186 10.609735 -126.688438 0.000000
46 0.000000 0.000000 0.000000 29.943106 5.416828 -130.477921 0.000000
[Rope1_Seg02]
45 139.999863 -0.000179 0.000000 5.536773 1.424411 3.978317 139.999863
46 139.999863 -0.000179 0.000000 6.289525 2.140456 3.191134 139.999863
[Rope1_Seg03]
45 139.999924 0.000060 -0.000060 6.797842 1.889722 4.272138 139.999924
46 139.999924 0.000060 -0.000060 6.760022 2.714525 2.907741 139.999924
[Rope1_Seg04]
45 139.999924 -0.000060 -0.000119 0.498904 -0.681289 1.220368 139.999924
46 139.999924 -0.000060 -0.000119 0.128789 1.353499 -1.381724 139.999924
[Rope1_Seg05]
45 139.999832 0.000119 -0.000060 33.721539 12.447473 15.508790 139.999832
46 139.999832 0.000119 -0.000060 32.095303 10.843654 16.122322 139.999832
[Rope1_Seg06]
45 139.999954 0.000119 -0.000060 19.799223 17.570196 5.331149 139.999954
46 139.999954 0.000119 -0.000060 20.881557 14.080350 7.585182 139.999954
[Rope1_Seg07]
45 139.999985 0.000060 0.000000 4.682912 7.102681 -0.203494 139.999985
46 139.999985 0.000060 0.000000 5.346544 5.959897 0.652016 139.999985
[Rope1_Seg09]
45 121.602913 0.000119 -0.000089 -89.793175 -1.359789 0.847147 121.602913
46 121.602913 0.000119 -0.000089 -89.793175 -1.359789 0.847147 121.602913
[L_mid_hand01]
45 103.859421 1.038730 8.195221 130.544373 -67.584534 -38.866943 104.187431
46 103.859421 1.038730 8.195221 130.544373 -67.584534 -38.866943 104.187431
[L_mid_hand02]
45 105.572853 -4.139662 -10.864139 -168.923172 43.409309 -73.498894 106.211075
46 105.572853 -4.139662 -10.864139 -168.923172 43.409309 -73.498886 106.211075
[L_mid_hand03]
45 104.641464 17.579376 -3.913581 -6.012627 17.808174 74.893669 106.179977
46 104.641464 17.579376 -3.913581 -6.012626 17.808172 74.893661 106.179977
[null_rope02_connect]
45 328.732849 0.000179 -0.000119 -134.850342 49.060364 -27.165873 328.732849
46 328.732849 0.000179 -0.000119 -137.378326 60.804379 -29.605909 328.732849
[Rope2_Seg01]
45 0.000075 0.000007 0.000000 -43.023739 -9.873971 -68.225685 0.000075
46 0.000075 0.000003 0.000000 -20.833483 -2.528681 -59.990295 0.000076
[Rope2_Seg02]
45 139.999741 -0.000060 -0.000119 1.041162 4.212820 -1.207258 139.999756
46 139.999741 -0.000060 -0.000119 -8.373349 5.594234 -7.825744 139.999756
[Rope2_Seg03]
45 140.000107 0.000030 0.000000 3.337375 1.605644 1.503261 140.000107
46 140.000107 0.000030 0.000000 0.396525 4.504690 -1.665621 140.000107
[Rope2_Seg04]
45 139.999802 0.000000 -0.000060 -3.248205 4.249423 -4.417376 139.999802
46 139.999802 0.000000 -0.000060 -7.739016 3.404869 -9.079650 139.999802
[Rope2_Seg05]
45 139.999985 -0.000060 0.000119 -4.211231 4.514622 -6.011282 139.999985
46 139.999985 -0.000060 0.000119 -5.784401 2.721408 -8.166888 139.999985
[Rope2_Seg06]
45 139.999893 -0.000030 -0.000119 -1.270602 2.211877 -2.343111 139.999893
46 139.999893 -0.000030 -0.000119 -1.844413 1.740275 -3.276897 139.999893
[Rope2_Seg07]
45 139.999893 0.000060 -0.000060 -0.688275 1.407871 -1.401635 139.999893
46 139.999893 0.000060 -0.000060 -1.038033 1.170560 -2.022128 139.999893
[Rope2_Seg09]
45 121.338966 0.000089 -0.000060 33.793236 -1.359788 -0.847141 121.338966
46 121.338966 0.000089 -0.000060 33.793236 -1.359788 -0.847141 121.338966
[R_mid_hand01]
45 104.680779 11.144459 -10.335981 -16.212063 45.237247 70.462852 105.778534
46 104.680779 11.144459 -10.335981 -16.212063 45.237247 70.462852 105.778534
[R_mid_hand02]
45 104.070427 2.443552 8.231699 49.067368 -67.749771 39.286453 104.424065
46 104.070427 2.443552 8.231699 49.067368 -67.749771 39.286453 104.424065
[R_mid_hand03]
45 106.028137 -11.221827 -5.996406 -177.101105 15.551026 -76.585571 106.788818
46 106.028137 -11.221827 -5.996406 -177.101105 15.551026 -76.585571 106.788818
[spine02]
45 129.756927 0.001550 0.000119 0.361382 -4.044680 -12.952457 129.756927
46 129.756927 0.001550 0.000119 0.360237 -4.044782 -12.920044 129.756927
[spine03]
45 78.613983 0.081736 -4.898991 1.897499 3.830791 16.503073 78.766518
46 78.613976 0.081735 -4.898990 1.896997 3.831040 16.488062 78.766510
[pelvis]
45 169.435242 0.051022 0.000000 -6.983211 1.176017 11.455163 169.435257
46 169.435242 0.051022 0.000000 -3.365807 0.508724 12.798684 169.435257
[null_rope03_connect]
45 -1.257226 -2.466202 137.391083 65.398811 -84.470543 6.004764 137.418976
46 -1.257226 -2.466202 137.391083 106.196236 -87.953018 -40.695412 137.418976
[null_rope04_connect]
45 -1.259640 -2.480268 -137.844437 65.398811 -84.470543 6.004764 137.872513
46 -1.259640 -2.480268 -137.844437 106.196236 -87.953018 -40.695412 137.872513
[Rope3_Seg01]
45 0.000000 0.000000 0.000000 14.484934 19.229160 -88.030640 0.000000
46 0.000000 0.000000 0.000000 11.582058 25.156662 -93.808289 0.000000
[Rope3_Seg02]
45 139.999924 -0.000119 0.000060 0.169120 -0.751321 3.893645 139.999924
46 139.999924 -0.000119 0.000060 0.325647 -0.905721 4.090179 139.999924
[Rope3_Seg03]
45 139.999924 -0.000119 0.000119 -0.005907 -1.057338 4.572929 139.999924
46 139.999924 -0.000119 0.000119 0.161638 -1.114173 4.927748 139.999924
[Rope3_Seg04]
45 139.999924 0.000119 0.000000 -0.595290 -2.773044 6.639082 139.999924
46 139.999924 0.000119 0.000000 -0.460097 -2.324817 8.561945 139.999924
[Rope3_Seg05]
45 139.999924 -0.000238 0.000060 0.309950 2.563060 2.279444 139.999924
46 139.999924 -0.000238 0.000060 0.231424 1.001343 -0.307891 139.999924
[Rope3_Seg06]
45 139.999893 -0.000119 -0.000060 1.211213 4.843863 -1.248998 139.999893
46 139.999893 -0.000119 -0.000060 0.646127 2.749533 -5.961709 139.999893
[Rope3_Seg07]
45 139.999771 0.000060 -0.000119 0.895250 2.359806 0.153706 139.999771
46 139.999771 0.000060 -0.000119 0.543760 1.164447 -2.149377 139.999771
[Rope3_Seg08]
45 139.999985 -0.000060 0.000000 0.814131 1.539178 0.096714 139.999985
46 139.999985 -0.000060 0.000000 0.542408 0.715232 -1.325406 139.999985
[Rope3_Seg09]
45 90.185997 -0.000179 -0.000060 89.793228 -1.359877 -0.847183 90.185997
46 90.185997 -0.000179 -0.000060 89.793228 -1.359877 -0.847183 90.185997
[R_rear_hand01]
45 103.366196 -6.073594 -10.757982 -177.714203 24.565960 -73.910950 104.101845
46 103.366196 -6.073594 -10.757982 -177.714203 24.565960 -73.910950 104.101845
[R_rear_hand02]
45 100.509819 12.039542 -7.992327 -12.874829 36.868488 72.167213 101.543350
46 100.509819 12.039542 -7.992327 -12.874829 36.868488 72.167213 101.543350
[R_rear_hand03]
45 101.539970 5.215704 5.435467 71.484581 -71.816628 21.513813 101.819031
46 101.539970 5.215704 5.435467 71.484581 -71.816628 21.513813 101.819031
[Rope4_Seg01]
45 0.000010 0.000002 -0.000007 -102.312805 18.181044 -112.893295 0.000012
46 0.000010 0.000001 -0.000003 -104.707512 20.284777 -119.305252 0.000010
[Rope4_Seg02]
45 139.999985 0.000060 0.000119 -0.562497 -5.696321 0.391134 139.999985
46 139.999985 0.000060 0.000119 -0.885510 -4.618148 0.765002 139.999985
[Rope4_Seg03]
45 139.999924 0.000000 -0.000238 -0.313308 -6.425367 0.316458 139.999924
46 139.999924 0.000000 -0.000238 -0.741632 -5.198194 0.777963 139.999924
[Rope4_Seg04]
45 139.999985 0.000000 0.000119 0.427736 -13.477364 -1.498121 139.999985
46 139.999985 0.000000 0.000119 -0.401928 -11.633620 -0.722978 139.999985
[Rope4_Seg05]
45 139.999802 -0.000060 -0.000119 0.408922 -0.713226 2.120997 139.999802
46 139.999802 -0.000060 -0.000119 -0.015387 -3.248241 1.822920 139.999802
[Rope4_Seg06]
45 139.999924 0.000000 0.000060 0.594519 12.625246 4.681352 139.999924
46 139.999924 0.000000 0.000060 0.662022 11.696509 4.744123 139.999924
[Rope4_Seg07]
45 139.999802 0.000000 0.000000 0.304304 5.889637 2.320260 139.999802
46 139.999802 0.000000 0.000000 0.372092 6.289141 2.503834 139.999802
[Rope4_Seg08]
45 139.999924 0.000000 0.000119 -1.416312 2.618068 1.166572 139.999924
46 139.999924 0.000000 0.000119 -1.442477 2.460106 1.172879 139.999924
[Rope4_Seg09]
45 90.185791 0.000060 0.000060 -135.617828 2.228885 0.850567 90.185791
46 90.185791 0.000060 0.000060 -135.617828 2.228885 0.850567 90.185791
[L_rear_hand01]
45 101.696655 -8.392275 -7.654577 -12.874829 -36.868488 107.832764 102.329041
46 101.696655 -8.392275 -7.654577 -12.874829 -36.868488 107.832764 102.329041
[L_rear_hand02]
45 102.726799 -1.568258 5.773216 71.484581 71.816628 158.486160 102.900848
46 102.726799 -1.568258 5.773216 71.484581 71.816628 158.486160 102.900848
[L_rear_hand03]
45 104.552910 9.721220 -10.420293 -177.714203 -24.565960 -106.089035 105.519653
46 104.552910 9.721220 -10.420293 -177.714203 -24.565960 -106.089035 105.519653
